<mxfile host="drawio-plugin" modified="2021-08-21T02:02:24.235Z" agent="5.0 (X11; Linux x86_64) AppleWebKit/537.36 (KHTML, like Gecko) Chrome/89.0.4389.114 Safari/537.36" etag="k5XMWmutY1pXNhhUtmfc" version="14.7.4" type="embed"><diagram id="qluPdkSLIfBocBvCUwJv" name="第 1 页"><mxGraphModel dx="996" dy="716" grid="1" gridSize="10" guides="1" tooltips="1" connect="1" arrows="1" fold="1" page="1" pageScale="1" pageWidth="827" pageHeight="1169" math="0" shadow="0"><root><mxCell id="0"/><mxCell id="1" parent="0"/><mxCell id="O-ewZK0CAkORPpdGF7LR-2" value="Adaptee" style="swimlane;fontStyle=1;align=center;verticalAlign=top;childLayout=stackLayout;horizontal=1;startSize=26;horizontalStack=0;resizeParent=1;resizeParentMax=0;resizeLast=0;collapsible=1;marginBottom=0;" parent="1" vertex="1"><mxGeometry x="550" y="250" width="200" height="60" as="geometry"/></mxCell><mxCell id="O-ewZK0CAkORPpdGF7LR-4" value="" style="line;strokeWidth=1;fillColor=none;align=left;verticalAlign=middle;spacingTop=-1;spacingLeft=3;spacingRight=3;rotatable=0;labelPosition=right;points=[];portConstraint=eastwest;" parent="O-ewZK0CAkORPpdGF7LR-2" vertex="1"><mxGeometry y="26" width="200" height="8" as="geometry"/></mxCell><mxCell id="O-ewZK0CAkORPpdGF7LR-18" value="" style="endArrow=diamondThin;endFill=0;endSize=24;html=1;entryX=1;entryY=0.25;entryDx=0;entryDy=0;" parent="O-ewZK0CAkORPpdGF7LR-2" target="O-ewZK0CAkORPpdGF7LR-12" edge="1"><mxGeometry width="160" relative="1" as="geometry"><mxPoint y="40" as="sourcePoint"/><mxPoint x="-190" y="30" as="targetPoint"/></mxGeometry></mxCell><mxCell id="O-ewZK0CAkORPpdGF7LR-5" value="+ specificRequest(type): type" style="text;strokeColor=none;fillColor=none;align=left;verticalAlign=top;spacingLeft=4;spacingRight=4;overflow=hidden;rotatable=0;points=[[0,0.5],[1,0.5]];portConstraint=eastwest;" parent="O-ewZK0CAkORPpdGF7LR-2" vertex="1"><mxGeometry y="34" width="200" height="26" as="geometry"/></mxCell><mxCell id="O-ewZK0CAkORPpdGF7LR-6" value="&lt;p style=&quot;margin: 0px ; margin-top: 4px ; text-align: center&quot;&gt;&lt;i&gt;&amp;lt;&amp;lt;Interface&amp;gt;&amp;gt;&lt;/i&gt;&lt;br&gt;&lt;b&gt;Target&lt;/b&gt;&lt;/p&gt;&lt;hr size=&quot;1&quot;&gt;&lt;p style=&quot;margin: 0px ; margin-left: 4px&quot;&gt;+ request(Type): Type&lt;br&gt;&lt;/p&gt;" style="verticalAlign=top;align=left;overflow=fill;fontSize=12;fontFamily=Helvetica;html=1;" parent="1" vertex="1"><mxGeometry x="281" y="60" width="190" height="77" as="geometry"/></mxCell><mxCell id="O-ewZK0CAkORPpdGF7LR-12" value="Adapter" style="swimlane;fontStyle=1;align=center;verticalAlign=top;childLayout=stackLayout;horizontal=1;startSize=26;horizontalStack=0;resizeParent=1;resizeParentMax=0;resizeLast=0;collapsible=1;marginBottom=0;" parent="1" vertex="1"><mxGeometry x="296" y="237" width="160" height="86" as="geometry"/></mxCell><mxCell id="O-ewZK0CAkORPpdGF7LR-17" value="" style="endArrow=block;dashed=1;endFill=0;endSize=12;html=1;" parent="O-ewZK0CAkORPpdGF7LR-12" target="O-ewZK0CAkORPpdGF7LR-6" edge="1"><mxGeometry width="160" relative="1" as="geometry"><mxPoint x="70" as="sourcePoint"/><mxPoint x="70" y="-100" as="targetPoint"/></mxGeometry></mxCell><mxCell id="O-ewZK0CAkORPpdGF7LR-13" value="+ adaptee: Adapter" style="text;strokeColor=none;fillColor=none;align=left;verticalAlign=top;spacingLeft=4;spacingRight=4;overflow=hidden;rotatable=0;points=[[0,0.5],[1,0.5]];portConstraint=eastwest;" parent="O-ewZK0CAkORPpdGF7LR-12" vertex="1"><mxGeometry y="26" width="160" height="26" as="geometry"/></mxCell><mxCell id="O-ewZK0CAkORPpdGF7LR-14" value="" style="line;strokeWidth=1;fillColor=none;align=left;verticalAlign=middle;spacingTop=-1;spacingLeft=3;spacingRight=3;rotatable=0;labelPosition=right;points=[];portConstraint=eastwest;" parent="O-ewZK0CAkORPpdGF7LR-12" vertex="1"><mxGeometry y="52" width="160" height="8" as="geometry"/></mxCell><mxCell id="O-ewZK0CAkORPpdGF7LR-15" value="+ request(type): type" style="text;strokeColor=none;fillColor=none;align=left;verticalAlign=top;spacingLeft=4;spacingRight=4;overflow=hidden;rotatable=0;points=[[0,0.5],[1,0.5]];portConstraint=eastwest;" parent="O-ewZK0CAkORPpdGF7LR-12" vertex="1"><mxGeometry y="60" width="160" height="26" as="geometry"/></mxCell><mxCell id="O-ewZK0CAkORPpdGF7LR-19" value="Client" style="html=1;" parent="1" vertex="1"><mxGeometry x="30" y="170" width="110" height="50" as="geometry"/></mxCell><mxCell id="O-ewZK0CAkORPpdGF7LR-20" value="Use" style="endArrow=open;endSize=12;dashed=1;html=1;entryX=0;entryY=0.5;entryDx=0;entryDy=0;exitX=1;exitY=0.5;exitDx=0;exitDy=0;" parent="1" source="O-ewZK0CAkORPpdGF7LR-19" target="O-ewZK0CAkORPpdGF7LR-6" edge="1"><mxGeometry width="160" relative="1" as="geometry"><mxPoint x="130" y="80" as="sourcePoint"/><mxPoint x="290" y="80" as="targetPoint"/></mxGeometry></mxCell><mxCell id="O-ewZK0CAkORPpdGF7LR-21" value="Adaptee" style="swimlane;fontStyle=1;align=center;verticalAlign=top;childLayout=stackLayout;horizontal=1;startSize=26;horizontalStack=0;resizeParent=1;resizeParentMax=0;resizeLast=0;collapsible=1;marginBottom=0;" parent="1" vertex="1"><mxGeometry x="550" y="398.5" width="200" height="60" as="geometry"/></mxCell><mxCell id="O-ewZK0CAkORPpdGF7LR-22" value="" style="line;strokeWidth=1;fillColor=none;align=left;verticalAlign=middle;spacingTop=-1;spacingLeft=3;spacingRight=3;rotatable=0;labelPosition=right;points=[];portConstraint=eastwest;" parent="O-ewZK0CAkORPpdGF7LR-21" vertex="1"><mxGeometry y="26" width="200" height="8" as="geometry"/></mxCell><mxCell id="O-ewZK0CAkORPpdGF7LR-24" value="+ specificRequest(type): type" style="text;strokeColor=none;fillColor=none;align=left;verticalAlign=top;spacingLeft=4;spacingRight=4;overflow=hidden;rotatable=0;points=[[0,0.5],[1,0.5]];portConstraint=eastwest;" parent="O-ewZK0CAkORPpdGF7LR-21" vertex="1"><mxGeometry y="34" width="200" height="26" as="geometry"/></mxCell><mxCell id="O-ewZK0CAkORPpdGF7LR-25" value="&lt;p style=&quot;margin: 0px ; margin-top: 4px ; text-align: center&quot;&gt;&lt;i&gt;&amp;lt;&amp;lt;Interface&amp;gt;&amp;gt;&lt;/i&gt;&lt;br&gt;&lt;b&gt;Target&lt;/b&gt;&lt;/p&gt;&lt;hr size=&quot;1&quot;&gt;&lt;p style=&quot;margin: 0px ; margin-left: 4px&quot;&gt;+ request(Type): Type&lt;br&gt;&lt;/p&gt;" style="verticalAlign=top;align=left;overflow=fill;fontSize=12;fontFamily=Helvetica;html=1;" parent="1" vertex="1"><mxGeometry x="271" y="390" width="190" height="77" as="geometry"/></mxCell><mxCell id="O-ewZK0CAkORPpdGF7LR-26" value="Adapter" style="swimlane;fontStyle=1;align=center;verticalAlign=top;childLayout=stackLayout;horizontal=1;startSize=26;horizontalStack=0;resizeParent=1;resizeParentMax=0;resizeLast=0;collapsible=1;marginBottom=0;" parent="1" vertex="1"><mxGeometry x="420" y="590" width="160" height="60" as="geometry"/></mxCell><mxCell id="O-ewZK0CAkORPpdGF7LR-27" value="" style="endArrow=block;dashed=1;endFill=0;endSize=12;html=1;" parent="O-ewZK0CAkORPpdGF7LR-26" edge="1"><mxGeometry width="160" relative="1" as="geometry"><mxPoint x="70" as="sourcePoint"/><mxPoint x="-50" y="-120" as="targetPoint"/></mxGeometry></mxCell><mxCell id="O-ewZK0CAkORPpdGF7LR-33" value="Extends" style="endArrow=block;endSize=16;endFill=0;html=1;" parent="O-ewZK0CAkORPpdGF7LR-26" target="O-ewZK0CAkORPpdGF7LR-24" edge="1"><mxGeometry width="160" relative="1" as="geometry"><mxPoint x="110" y="1.5" as="sourcePoint"/><mxPoint x="270" y="1.5" as="targetPoint"/></mxGeometry></mxCell><mxCell id="O-ewZK0CAkORPpdGF7LR-29" value="" style="line;strokeWidth=1;fillColor=none;align=left;verticalAlign=middle;spacingTop=-1;spacingLeft=3;spacingRight=3;rotatable=0;labelPosition=right;points=[];portConstraint=eastwest;" parent="O-ewZK0CAkORPpdGF7LR-26" vertex="1"><mxGeometry y="26" width="160" height="8" as="geometry"/></mxCell><mxCell id="O-ewZK0CAkORPpdGF7LR-30" value="+ request(type): type" style="text;strokeColor=none;fillColor=none;align=left;verticalAlign=top;spacingLeft=4;spacingRight=4;overflow=hidden;rotatable=0;points=[[0,0.5],[1,0.5]];portConstraint=eastwest;" parent="O-ewZK0CAkORPpdGF7LR-26" vertex="1"><mxGeometry y="34" width="160" height="26" as="geometry"/></mxCell><mxCell id="O-ewZK0CAkORPpdGF7LR-31" value="Client" style="html=1;" parent="1" vertex="1"><mxGeometry x="20" y="500" width="110" height="50" as="geometry"/></mxCell><mxCell id="O-ewZK0CAkORPpdGF7LR-32" value="Use" style="endArrow=open;endSize=12;dashed=1;html=1;entryX=0;entryY=0.5;entryDx=0;entryDy=0;exitX=1;exitY=0.5;exitDx=0;exitDy=0;" parent="1" source="O-ewZK0CAkORPpdGF7LR-31" target="O-ewZK0CAkORPpdGF7LR-25" edge="1"><mxGeometry width="160" relative="1" as="geometry"><mxPoint x="120" y="410" as="sourcePoint"/><mxPoint x="280" y="410" as="targetPoint"/></mxGeometry></mxCell></root></mxGraphModel></diagram></mxfile>